<svg xmlns="http://www.w3.org/2000/svg" version="1.1" xmlns:xlink="http://www.w3.org/1999/xlink" width="512" height="512" x="0" y="0" viewBox="0 0 60 60" style="enable-background:new 0 0 512 512" xml:space="preserve" class=""><g><path d="M42.134 15.355C38.72 8.676 30.983 4 22 4 9.869 4 0 12.523 0 23c0 4.948 2.171 9.604 6.127 13.166-.326 2.491-1.179 4.415-2.727 6.181a1.599 1.599 0 0 0-.184 1.852 1.568 1.568 0 0 0 1.683.772c3.456-.669 6.637-2.125 9.236-4.221a24.49 24.49 0 0 0 3.744.914c3.512 6.9 11.334 11.335 20.119 11.335 2.711 0 5.354-.421 7.863-1.251 2.598 2.097 5.779 3.553 9.235 4.223a1.567 1.567 0 0 0 1.684-.772 1.595 1.595 0 0 0-.182-1.85c-1.55-1.769-2.402-3.692-2.729-6.184 3.956-3.563 6.127-8.219 6.127-13.166 0-9.192-7.486-16.951-17.866-18.644zM13.279 38.861c-1.53 1.311-4.052 2.991-7.644 3.896 1.455-1.966 2.268-4.187 2.539-6.898A1.003 1.003 0 0 0 7.829 35c-3.76-3.218-5.83-7.479-5.83-12C2 13.626 10.972 6 22 6s20 7.626 20 17-8.972 17-20 17c-2.677 0-5.279-.444-7.733-1.321a.994.994 0 0 0-.987.183zm38.891 7.138a1.004 1.004 0 0 0-.345.859c.271 2.711 1.084 4.933 2.539 6.899-3.592-.905-6.114-2.587-7.643-3.898a1 1 0 0 0-.988-.183A22.915 22.915 0 0 1 38 50.997c-7.517 0-14.241-3.509-17.676-9.063.556.036 1.114.065 1.676.065 12.131 0 22-8.523 22-19 0-1.892-.326-3.718-.925-5.444C51.822 19.479 58 26.167 58 33.998c0 4.52-2.07 8.781-5.83 12z" fill="#e7e5e4" opacity="1" data-original="#000000" class=""></path><path d="M10 18h24a1 1 0 1 0 0-2H10a1 1 0 1 0 0 2zM10 24h24a1 1 0 1 0 0-2H10a1 1 0 1 0 0 2zM29 29a1 1 0 0 0-1-1H10a1 1 0 1 0 0 2h18a1 1 0 0 0 1-1z" fill="#e7e5e4" opacity="1" data-original="#000000" class=""></path></g></svg>