<svg xmlns="http://www.w3.org/2000/svg" version="1.1" xmlns:xlink="http://www.w3.org/1999/xlink" width="512" height="512" x="0" y="0" viewBox="0 0 60 60" style="enable-background:new 0 0 512 512" xml:space="preserve" class=""><g><path d="M21 9A20.952 20.952 0 0 0 2 38.886V48a3 3 0 0 0 3 3h49.184A2.993 2.993 0 0 0 60 50v-3a3 3 0 0 0-3-3H42V30A21.024 21.024 0 0 0 21 9zM5 49a1 1 0 0 1-1-1v-5.721A21.1 21.1 0 0 0 12.114 49zm35 0H21a19 19 0 1 1 19-19zm16-3h1a1 1 0 0 1 1 1v3a1 1 0 0 1-2 0zm-2 0v3H42v-3z" fill="#0c0a09" opacity="1" data-original="#000000" class=""></path><path d="M21 15a15 15 0 1 0 15 15 15.017 15.017 0 0 0-15-15zm0 28a13 13 0 1 1 13-13 13.015 13.015 0 0 1-13 13zM32 44a3 3 0 1 0 3-3 3 3 0 0 0-3 3zm4 0a1 1 0 1 1-1-1 1 1 0 0 1 1 1z" fill="#0c0a09" opacity="1" data-original="#000000" class=""></path><path d="M27 25H15a1 1 0 0 0 0 2h12a1 1 0 0 0 0-2zM24 29h-6a1 1 0 0 0 0 2h6a1 1 0 0 0 0-2zM24 33h-6a1 1 0 0 0 0 2h6a1 1 0 0 0 0-2z" fill="#0c0a09" opacity="1" data-original="#000000" class=""></path></g></svg>