<svg xmlns="http://www.w3.org/2000/svg" version="1.1" xmlns:xlink="http://www.w3.org/1999/xlink" width="512" height="512" x="0" y="0" viewBox="0 0 60 60" style="enable-background:new 0 0 512 512" xml:space="preserve" class=""><g><path d="M58 23h-9v-2.278c.595-.347 1-.985 1-1.722v-2.23c0-.254.135-.411.216-.482a.659.659 0 0 1 .502-.155c1.62.2 4.634.795 6.622 2.539a1.323 1.323 0 0 0 1.626.096c.512-.352.718-1 .494-1.595-.974-2.457-4.04-8.172-11.46-8.172h-3.406c-.553 0-1.092.18-1.559.521a2.546 2.546 0 0 1-1.516.479c-.741 0-1.256-.262-1.557-.481a2.637 2.637 0 0 0-1.557-.519h-2.003a2.406 2.406 0 0 0-2.403 2.403v3.193A2.406 2.406 0 0 0 36.402 17h1.941c.597 0 1.174-.203 1.625-.572.238-.195.671-.428 1.38-.428.358 0 .65.292.65.65V19c0 .737.405 1.375 1 1.722V23H22.381c.31-1.014.763-1.677 1.214-2.314.692-.98 1.408-1.994 1.403-3.902.011-4.258-1.853-6.475-2.65-7.228-.769-.73-2.093-.702-2.82.038a1.805 1.805 0 0 0-.529 1.296v3.98c0 .07-.063.13-.14.13l-1.817-.032a.142.142 0 0 1-.043-.098v-3.98c0-1.023-.901-1.889-2.006-1.889-.517.02-.979.211-1.34.552-.801.757-2.664 2.975-2.653 7.225-.005 1.914.711 2.928 1.403 3.908.45.638.904 1.3 1.214 2.314H9.925l-1.968-4.72.099-1.396c.04-.531-.14-1.045-.529-1.471l-2.919-2.988a1.503 1.503 0 0 0-1.626-.31l-1.058.44c-.547.231-.909.766-.924 1.4l.062 4.137c.004.57.26 1.099.665 1.419l1.025.894s0 .003.002.005L3.83 23H1.999c-1.103 0-2 .897-2 2v4c0 1.103.897 2 2 2h1v16c0 2.206 1.794 4 4 4h14c2.206 0 4-1.794 4-4V31h10v16c0 2.206 1.794 4 4 4h14c2.206 0 4-1.794 4-4V31h1c1.103 0 2-.897 2-2v-4c0-1.103-.897-2-2-2zm-3.359 8c-.69 1.185-2.711 3-8.641 3-5.989 0-7.992-1.808-8.662-3h17.304zM45 29v-8h2v8zm-3.65-15c-1.301 0-2.157.479-2.646.88a.557.557 0 0 1-.358.12h-1.941a.403.403 0 0 1-.403-.403v-3.193c0-.223.181-.403.403-.403h2.003c.159 0 .294.073.379.135.541.395 1.454.865 2.734.865 1.247 0 2.153-.47 2.693-.863a.663.663 0 0 1 .381-.137h3.406c4.477 0 7.062 2.433 8.504 4.73-1.875-.95-3.938-1.386-5.542-1.583a2.612 2.612 0 0 0-2.071.642 2.646 2.646 0 0 0-.891 1.98V19h-4v-2.35a2.652 2.652 0 0 0-2.65-2.65zM43 29h-9.184c.112-.314.184-.648.184-1v-2c0-.352-.072-.686-.184-1H43zm-16.816-4A2.966 2.966 0 0 0 26 26v2c0 .352.072.686.184 1H22v-3c0-.36.013-.69.034-1zm-3.543 6c-.69 1.185-2.711 3-8.641 3-5.989 0-7.992-1.808-8.662-3h17.304zM15 11.036v3.834c0 .567.233 1.122.64 1.522s.945.593 1.49.607h1.73c1.18 0 2.14-.955 2.14-2.13v-3.838c.625.601 2.009 2.317 2 5.751.004 1.276-.433 1.894-1.036 2.749-.875 1.238-1.964 2.78-1.964 6.468v3h-4v-3c0-3.688-1.089-5.229-1.964-6.468-.604-.855-1.04-1.473-1.036-2.755-.009-3.41 1.362-5.128 2-5.741zM13.966 25c.021.31.034.64.034 1v3h-1.574l-1.667-4zM3.004 14.272l.438-.183 2.62 2.648-.102 1.443c-.007.27.042.55.152.837l4.148 9.981H8.491l-3.866-9.296a1.807 1.807 0 0 0-.529-.782l-1.034-.899-.058-3.75zM2 25h2.662l1.662 4H2zm19 24H7c-1.103 0-2-.897-2-2V33.63C6.531 34.893 9.232 36 14 36s7.469-1.106 9-2.37V47c0 1.103-.897 2-2 2zm8-20a1 1 0 0 1-1-1v-2a1 1 0 0 1 1-1h2a1 1 0 0 1 1 1v2a1 1 0 0 1-1 1zm24 20H39c-1.103 0-2-.897-2-2V33.63c1.531 1.263 4.232 2.37 9 2.37s7.469-1.106 9-2.37V47c0 1.103-.897 2-2 2zm5-20h-9v-4h9z" fill="#0c0a09" opacity="1" data-original="#000000" class=""></path></g></svg>